<svg xmlns="http://www.w3.org/2000/svg" viewBox="0 0 64 64">
  <circle cx="32" cy="32" r="31" fill="#0B2447"/>
  <path d="M20 34c0-1.1.9-2 2-2h4l3-7h10l3 7h4c1.1 0 2 .9 2 2v6c0 1.1-.9 2-2 2h-1a4 4 0 1 1-8 0h-6a4 4 0 1 1-8 0h-1c-1.1 0-2-.9-2-2v-6z"
        fill="none" stroke="#F97316" stroke-width="2.4" stroke-linejoin="round"/>
  <circle cx="26" cy="42" r="2.3" fill="#F97316"/>
  <circle cx="40" cy="42" r="2.3" fill="#F97316"/>
  <path d="M24 25l2-5h12l2 5" fill="none" stroke="#F97316" stroke-width="2.2" stroke-linecap="round" stroke-linejoin="round"/>
</svg>
